HIERARCHY
ROOT Hips
{
	OFFSET 0.000000 0.000000 0.000000
	CHANNELS 6 Xposition Yposition Zposition Xrotation Yrotation Zrotation
	JOINT LeftUpLeg_virtual
	{
		OFFSET 0.000000 0.000000 0.000000
		CHANNELS 3 Xrotation Yrotation Zrotation
		JOINT LeftUpLeg
		{
			OFFSET 15.427100 -6.655098 0.678600
			CHANNELS 3 Xrotation Yrotation Zrotation
			JOINT LeftLeg
			{
				OFFSET 4.081073 -39.591068 13.024000
				CHANNELS 3 Xrotation Yrotation Zrotation
				JOINT LeftFoot
				{
					OFFSET -4.081074 -37.707932 -15.979700
					CHANNELS 3 Xrotation Yrotation Zrotation
					JOINT LeftToeBase
					{
						OFFSET 5.346399 -15.068900 20.645000
						CHANNELS 3 Xrotation Yrotation Zrotation
						JOINT LeftToe_End
						{
							OFFSET 2.754700 0.931300 11.300900
							CHANNELS 3 Xrotation Yrotation Zrotation
							End Site
							{
								OFFSET 0 0 0
							}
						}
					}
				}
			}
		}
	}
	JOINT RightUpLeg_virtual
	{
		OFFSET 0.000000 0.000000 0.000000
		CHANNELS 3 Xrotation Yrotation Zrotation
		JOINT RightUpLeg
		{
			OFFSET -15.569500 -6.655098 0.678600
			CHANNELS 3 Xrotation Yrotation Zrotation
			JOINT RightLeg
			{
				OFFSET -4.081825 -39.591045 13.023800
				CHANNELS 3 Xrotation Yrotation Zrotation
				JOINT RightFoot
				{
					OFFSET 4.081824 -37.707954 -15.979600
					CHANNELS 3 Xrotation Yrotation Zrotation
					JOINT RightToeBase
					{
						OFFSET -5.346400 -15.068900 20.645000
						CHANNELS 3 Xrotation Yrotation Zrotation
						JOINT RightToe_End
						{
							OFFSET -2.754700 0.931300 11.300900
							CHANNELS 3 Xrotation Yrotation Zrotation
							End Site
							{
								OFFSET 0 0 0
							}
						}
					}
				}
			}
		}
	}
	JOINT Spine_virtual
	{
		OFFSET 0.000000 0.000000 0.000000
		CHANNELS 3 Xrotation Yrotation Zrotation
		JOINT Spine
		{
			OFFSET -0.279200 12.230698 -2.892100
			CHANNELS 3 Xrotation Yrotation Zrotation
			JOINT Spine1
			{
				OFFSET -0.232667 10.192268 -1.242267
				CHANNELS 3 Xrotation Yrotation Zrotation
				JOINT Spine1_split
				{
					OFFSET -0.232667 10.192268 -1.242267
					CHANNELS 3 Xrotation Yrotation Zrotation
					JOINT Spine2
					{
						OFFSET -0.232667 10.192268 -1.242267
						CHANNELS 3 Xrotation Yrotation Zrotation
						JOINT Neck_virtual
						{
							OFFSET 0.000000 0.000000 0.000000
							CHANNELS 3 Xrotation Yrotation Zrotation
							JOINT Neck
							{
								OFFSET -0.418800 17.814194 8.416900
								CHANNELS 3 Xrotation Yrotation Zrotation
								JOINT Head
								{
									OFFSET 0.000000 7.031097 3.806800
									CHANNELS 3 Xrotation Yrotation Zrotation
									JOINT HeadTop_End
									{
										OFFSET 0.000000 24.646606 12.978600
										CHANNELS 3 Xrotation Yrotation Zrotation
										End Site
										{
											OFFSET 0 0 0
										}
									}
								}
							}
						}
						JOINT LeftShoulder_virtual
						{
							OFFSET 0.000000 0.000000 0.000000
							CHANNELS 3 Xrotation Yrotation Zrotation
							JOINT LeftShoulder
							{
								OFFSET 8.476499 7.247704 -3.868750
								CHANNELS 3 Xrotation Yrotation Zrotation
								JOINT LeftShoulder_split
								{
									OFFSET 8.476499 7.247704 -3.868750
									CHANNELS 3 Xrotation Yrotation Zrotation
									JOINT LeftArm
									{
										OFFSET 9.308998 -2.777710 0.208600
										CHANNELS 3 Xrotation Yrotation Zrotation
										JOINT LeftForeArm
										{
											OFFSET 29.972298 0.000000 0.000000
											CHANNELS 3 Xrotation Yrotation Zrotation
											JOINT LeftHand
											{
												OFFSET 26.026505 0.000000 0.000000
												CHANNELS 3 Xrotation Yrotation Zrotation
												End Site
												{
													OFFSET 0 0 0
												}
											}
										}
									}
								}
							}
						}
						JOINT RightShoulder_virtual
						{
							OFFSET 0.000000 0.000000 0.000000
							CHANNELS 3 Xrotation Yrotation Zrotation
							JOINT RightShoulder
							{
								OFFSET -7.570500 7.247704 -3.868750
								CHANNELS 3 Xrotation Yrotation Zrotation
								JOINT RightShoulder_split
								{
									OFFSET -7.570500 7.247704 -3.868750
									CHANNELS 3 Xrotation Yrotation Zrotation
									JOINT RightArm
									{
										OFFSET -9.308998 -2.777710 0.208500
										CHANNELS 3 Xrotation Yrotation Zrotation
										JOINT RightForeArm
										{
											OFFSET -29.972300 0.000000 0.000000
											CHANNELS 3 Xrotation Yrotation Zrotation
											JOINT RightHand
											{
												OFFSET -26.026505 0.000000 0.000000
												CHANNELS 3 Xrotation Yrotation Zrotation
												End Site
												{
													OFFSET 0 0 0
												}
											}
										}
									}
								}
							}
						}
					}
				}
			}
		}
	}
}
MOTION
Frames: 9
Frame Time: 0.03333333
14.364704 90.593597 31.811710 0.000000 0.000000 0.000000 5.746972 27.012370 -13.497861 -85.225434 -14.059287 28.707722 105.540199 -26.488995 2.054672 42.127674 -7.536219 14.397139 -12.249199 -6.996483 -2.166993 0.000000 0.000000 0.000000 -2.331099 22.967843 -11.558533 9.512537 -26.805398 15.109891 20.473827 10.634036 -3.310665 -38.624317 -20.354450 20.051000 9.544151 8.918530 -41.983155 0.000000 0.000000 0.000000 3.328311 13.906903 -12.957188 23.465924 1.423430 6.624981 3.222350 0.390352 -3.360205 0.003677 0.176003 0.196897 0.000000 0.000000 0.000000 1.320163 3.726599 -4.548672 1.639573 16.968415 21.855991 -4.445084 -61.817597 -4.412607 0.000000 0.000000 0.000000 -0.224990 0.830955 -4.182106 1.087006 -21.675549 -11.252776 7.427495 1.775333 2.560431 16.601405 17.113748 -54.601707 144.078701 -68.457921 130.319108 0.000000 0.000000 0.000000 -0.182507 2.019819 -2.819403 -4.348782 4.753282 24.032680 -2.518803 -10.632065 7.543488 7.414561 8.181741 10.499578 -168.432820 52.335846 177.956399 0.000000 0.000000 0.000000 
14.295796 90.536324 40.729172 0.000000 0.000000 0.000000 4.248554 22.811601 -14.552683 -86.544139 -7.913034 31.008970 91.445687 -23.384440 -4.708235 28.955071 -7.690476 17.014064 -8.963975 -7.226723 -1.163836 0.000000 0.000000 0.000000 -1.874969 20.632721 -13.113923 12.700119 -25.466671 13.675461 17.698835 9.447740 -1.588857 -35.621755 -18.617692 18.754081 9.721041 8.850187 -41.802086 0.000000 0.000000 0.000000 4.956359 12.879338 -15.037572 23.323295 2.070651 6.619071 3.332221 0.165252 -3.058452 0.123715 0.414398 0.345606 0.000000 0.000000 0.000000 0.792428 3.604220 -4.322089 2.241154 16.936644 21.362062 -6.457732 -59.460765 -4.981168 0.000000 0.000000 0.000000 -0.423897 0.775923 -3.981443 1.626338 -18.889433 -11.602851 6.431856 2.870490 0.299864 24.031182 18.955373 -54.415557 140.340211 -70.113777 126.623538 0.000000 0.000000 0.000000 -0.809564 1.800878 -2.611938 -4.397333 5.790907 23.950402 -6.503028 -14.032794 7.114713 9.449031 7.911437 11.653535 -167.625082 50.142311 176.918388 0.000000 0.000000 0.000000 
14.143467 90.074150 51.176430 0.000000 0.000000 0.000000 2.385896 16.132823 -15.015169 -86.173054 -3.218419 32.295621 77.642005 -20.452788 -7.632243 18.546942 -10.318404 9.675013 3.000415 -7.096115 0.967203 0.000000 0.000000 0.000000 -1.760327 14.929055 -14.300301 12.608457 -20.707038 9.357518 20.659686 9.009565 0.704057 -22.335758 -14.743774 20.449882 8.497404 8.071055 -36.433752 0.000000 0.000000 0.000000 6.474321 10.297092 -16.826927 22.510898 2.656561 6.533727 2.948910 -0.188323 -2.529327 0.113494 0.300633 0.309157 0.000000 0.000000 0.000000 0.197543 3.195208 -3.748931 2.303863 16.841845 20.815044 -7.685529 -56.975321 -5.705371 0.000000 0.000000 0.000000 -0.772333 0.464123 -3.725049 2.148460 -15.123384 -12.963673 5.113015 2.222907 -0.770758 31.406043 22.949113 -54.819556 134.764372 -74.097635 121.725774 0.000000 0.000000 0.000000 -1.662979 1.448220 -2.238659 -4.476976 7.234041 24.407901 -8.019482 -13.380931 4.976167 9.645247 3.319563 16.332977 -168.198545 50.099957 176.763779 0.000000 0.000000 0.000000 
14.297827 89.205681 61.980446 0.000000 0.000000 0.000000 -0.102640 8.217800 -14.751477 -81.463844 0.347222 30.990665 66.696866 -18.493342 -6.671566 12.147355 -11.867357 -2.838567 11.101234 -6.606433 6.713967 0.000000 0.000000 0.000000 -1.802528 7.379300 -14.751064 9.313678 -12.545267 3.240585 28.874915 9.934768 3.355573 -2.196696 -9.210333 21.222733 11.697619 4.850923 -26.633821 0.000000 0.000000 0.000000 5.984579 7.884574 -17.485336 21.169970 2.906261 6.139333 2.023139 -0.546654 -2.020885 0.071672 -0.049342 0.114163 0.000000 0.000000 0.000000 -0.378787 2.689582 -3.139215 2.111720 16.896764 19.988422 -7.108406 -55.155823 -5.824254 0.000000 0.000000 0.000000 -1.376873 0.038142 -3.582876 2.576520 -11.608870 -14.870259 4.517905 0.051180 -0.905403 36.604661 27.413620 -54.973256 125.094819 -79.269598 113.419758 0.000000 0.000000 0.000000 -2.585999 0.999220 -1.950979 -4.498495 8.741251 25.245798 -6.836847 -9.391017 2.605998 10.183064 -2.748000 21.868825 -169.453168 54.774606 177.035717 0.000000 0.000000 0.000000 
14.558266 88.124664 72.861580 0.000000 0.000000 0.000000 -3.166462 0.341213 -13.628957 -70.849539 5.065340 26.986451 58.078506 -14.876681 -4.442167 5.100310 -9.244769 -10.936180 10.635075 -6.200972 14.100328 0.000000 0.000000 0.000000 -1.511230 -0.289276 -14.375696 2.980609 -2.259427 -1.939865 39.025891 9.186749 5.971473 16.760639 -5.783992 17.938488 16.570346 1.193165 -15.922040 0.000000 0.000000 0.000000 3.633600 6.399425 -16.500240 19.547764 2.513183 5.253484 0.769260 -0.815807 -1.801295 -0.098482 -0.586635 -0.038874 0.000000 0.000000 0.000000 -1.106251 2.171912 -2.773992 1.928096 17.303292 18.488777 -4.202655 -54.837403 -4.619715 0.000000 0.000000 0.000000 -2.143051 -0.429734 -3.599392 2.756396 -9.600796 -16.842803 4.849186 -2.029261 -1.167177 38.032423 31.108937 -54.170924 91.246485 -83.975523 81.443053 0.000000 0.000000 0.000000 -3.397512 0.494222 -1.955664 -4.390196 10.090975 26.317689 -5.617177 -4.478680 2.331228 12.541061 -5.924007 26.171869 -171.166030 66.861261 177.695950 0.000000 0.000000 0.000000 
14.759353 87.253143 82.648735 0.000000 0.000000 0.000000 -6.380855 -7.050375 -12.028608 -54.494268 10.839220 20.563022 51.190881 -8.726159 -2.269474 -4.488646 -1.898797 -10.824140 7.213111 -5.993927 17.288809 0.000000 0.000000 0.000000 -2.628179 -6.033259 -13.378456 -5.298002 7.252770 -3.881410 48.923866 6.552352 8.831147 28.200719 -5.811633 13.781326 18.903092 -2.024246 -8.320099 0.000000 0.000000 0.000000 -0.764798 5.343155 -13.796438 17.789264 1.249138 3.677939 -0.518708 -1.073419 -2.016928 -0.394505 -1.036400 -0.052747 0.000000 0.000000 0.000000 -2.161761 1.725910 -2.732862 1.893396 18.196585 16.079688 2.292628 -56.123463 -0.637580 0.000000 0.000000 0.000000 -2.853923 -0.913820 -3.677205 2.485113 -9.924647 -18.305609 5.053050 -4.014820 -2.543429 34.887162 32.802854 -51.555241 25.084291 -81.332178 17.624687 0.000000 0.000000 0.000000 -4.120529 -0.105698 -2.321995 -4.093733 10.999461 27.405304 -4.349763 -0.981708 3.592222 16.844257 -1.892460 27.499388 -172.837882 86.606908 178.474168 0.000000 0.000000 0.000000 
14.345210 87.394585 91.053841 0.000000 0.000000 0.000000 -10.234194 -12.737627 -10.363657 -36.135334 14.958442 12.690268 45.993715 -1.433941 -0.538686 -12.590167 7.043972 -7.167511 7.293869 -4.702664 12.973036 0.000000 0.000000 0.000000 -6.025021 -7.970309 -11.665224 -14.914862 12.917257 -3.456677 57.841382 3.433493 11.864322 30.815935 -6.302499 11.843435 20.119154 -5.199638 -6.431257 0.000000 0.000000 0.000000 -6.356256 6.100847 -10.518242 16.009760 -0.794907 1.491889 -1.578708 -1.453889 -2.578935 -0.440462 -1.212189 0.048671 0.000000 0.000000 0.000000 -3.443974 1.249337 -2.915130 2.043206 19.658794 13.102986 13.125876 -57.513533 7.310072 0.000000 0.000000 0.000000 -3.317791 -1.424774 -3.626372 1.754273 -12.721898 -19.083198 4.839054 -5.192468 -4.119400 27.497531 30.897710 -46.803448 7.301657 -72.089703 2.234551 0.000000 0.000000 0.000000 -4.579870 -0.863894 -3.026123 -3.713955 11.557705 27.959250 -3.733288 -0.407157 5.585555 23.717828 11.036992 23.960090 4.731106 70.423219 0.347178 0.000000 0.000000 0.000000 
13.234914 89.263367 97.512016 0.000000 0.000000 0.000000 -15.045717 -14.695608 -8.874729 -19.231560 15.769882 6.321104 41.559843 3.387271 0.654888 -14.332406 14.048923 -6.171691 5.296620 -3.215539 5.654649 0.000000 0.000000 0.000000 -11.981775 -7.629326 -9.656568 -25.800975 14.823887 -1.875948 64.308779 -0.154468 14.020449 27.239732 -5.274876 12.696733 23.009319 -7.857026 -10.207116 0.000000 0.000000 0.000000 -11.207371 7.590117 -7.462288 14.257179 -3.412604 -0.691476 -2.053522 -2.075646 -3.181806 -0.224852 -1.317926 0.199443 0.000000 0.000000 0.000000 -4.798739 0.615055 -3.106209 2.417448 21.499573 10.286445 27.181732 -57.307261 18.599228 0.000000 0.000000 0.000000 -3.300334 -1.931988 -3.278726 0.770927 -17.533294 -19.206401 3.857421 -4.910400 -6.297392 17.480153 25.070180 -41.356611 3.478353 -60.477760 0.767395 0.000000 0.000000 0.000000 -4.666536 -1.793838 -3.823630 -3.286976 11.618859 27.809901 -4.215751 -0.671864 5.942012 32.229347 29.506363 15.123290 2.146846 53.290707 2.813076 0.000000 0.000000 0.000000 
11.843234 92.856247 103.083023 0.000000 0.000000 0.000000 -20.244433 -11.406478 -7.420212 -3.719357 14.978518 2.837782 35.193724 4.648400 0.541498 -11.813878 17.545701 -7.504307 -4.356991 -2.060560 0.610730 0.000000 0.000000 0.000000 -18.198226 -5.091678 -7.349921 -34.713538 15.269248 0.378714 66.815554 -3.920570 14.232675 20.139202 -2.902859 15.232369 29.202706 -10.072840 -16.939747 0.000000 0.000000 0.000000 -15.634959 8.664356 -5.392789 12.460878 -6.208623 -2.171603 -1.839016 -2.897597 -3.500278 0.236663 -1.430120 0.287029 0.000000 0.000000 0.000000 -5.890324 -0.038528 -3.091539 3.302134 23.377595 8.359190 39.433120 -54.311868 28.723374 0.000000 0.000000 0.000000 -2.876733 -2.342316 -2.618284 -0.156242 -23.283101 -18.742729 2.578683 -4.304173 -8.817587 7.539206 17.215924 -36.904537 2.858526 -49.424881 2.372229 0.000000 0.000000 0.000000 -4.518130 -2.720683 -4.433927 -2.717253 10.920370 26.423499 -4.352312 -0.875492 5.086490 42.026127 47.868732 0.728142 -2.112610 47.422905 7.240125 0.000000 0.000000 0.000000 
